<svg xmlns="http://www.w3.org/2000/svg" viewBox="0 0 128 128" width="128" height="128">
  <path fill="#664b33" d="M26.59 66.873h-9.037a4.724 4.724 0 1 0 0 9.448h9.037zm74.701 0h9.156a4.724 4.724 0 1 1 0 9.448h-9.156zM59.275 94.892h9.447v23.309h-9.447z"/>
  <path fill="#fff2e4" d="M53.108 64.563h21.787v33.239H53.108z"/>
  <path fill="#a93ccb" d="M56.386 66.873H23.621v16.281h18.493v19.096h14.272Zm15.229 0v35.377h14.271V83.154h18.493V66.873Z"/>
  <path fill="#00c279" d="M37.532 125.894c0-5.894 11.85-10.671 26.468-10.671S90.469 120 90.469 125.894z"/>
  <path fill="#ff8800" d="M92.511 23.824v-4.195H35.489v4.195a34.3 34.3 0 0 0-5.944 19.349v5.301c0 11.25 9.12 20.37 20.37 20.37h28.167c11.25 0 20.37-9.12 20.37-20.37v-5.301a34.3 34.3 0 0 0-5.943-19.349"/>
  <path fill="#b35f00" d="M54.057 32.554a2.023 2.023 0 0 0-3.081 0c-2.332 2.732-6.112 9.012-2.384 9.012h7.848c3.729.001-.051-6.279-2.383-9.012m19.886 0a2.023 2.023 0 0 1 3.081 0c2.332 2.732 6.112 9.012 2.384 9.012H71.56c-3.729.001.051-6.279 2.383-9.012m-10.992 7.25a1.377 1.377 0 0 1 2.097 0c1.587 1.86 4.16 6.135 1.622 6.135h-5.342c-2.538 0 .035-4.274 1.623-6.135m9.948 9.838h-3.736v1.655a1.517 1.517 0 1 1-3.034 0v-1.655h-4.258v1.655a1.517 1.517 0 1 1-3.034 0v-1.655h-3.736a1.517 1.517 0 0 0-1.517 1.517c0 5.743 4.673 10.416 10.416 10.416s10.416-4.673 10.416-10.416a1.52 1.52 0 0 0-1.517-1.517"/>
  <path fill="#ffe046" d="M84.547 12.813c-9.867-14.276-31.227-14.276-41.094 0a25 25 0 0 0-1.339 2.166v2.277h43.773v-2.277a25 25 0 0 0-1.339-2.166"/>
  <path fill="#ecb400" d="M102.014 14.98H25.985a4.422 4.422 0 0 0 0 8.844h76.029a4.422 4.422 0 0 0 0-8.844"/>
</svg>
